<?xml version="1.0" encoding="UTF-8" standalone="no"?>
<svg
   xmlns:dc="http://purl.org/dc/elements/1.1/"
   xmlns:cc="http://creativecommons.org/ns#"
   xmlns:rdf="http://www.w3.org/1999/02/22-rdf-syntax-ns#"
   xmlns:svg="http://www.w3.org/2000/svg"
   xmlns="http://www.w3.org/2000/svg"
   xmlns:sodipodi="http://sodipodi.sourceforge.net/DTD/sodipodi-0.dtd"
   xmlns:inkscape="http://www.inkscape.org/namespaces/inkscape"
   version="1.1"
   id="svg2"
   xml:space="preserve"
   width="1333.3333"
   height="1333.3333"
   viewBox="0 0 1333.3333 1333.3333"
   sodipodi:docname="logo_i_azul.ai"><metadata
     id="metadata8"><rdf:RDF><cc:Work
         rdf:about=""><dc:format>image/svg+xml</dc:format><dc:type
           rdf:resource="http://purl.org/dc/dcmitype/StillImage" /></cc:Work></rdf:RDF></metadata><defs
     id="defs6"><clipPath
       clipPathUnits="userSpaceOnUse"
       id="clipPath20"><path
         d="M 0,1000 H 1000 V 0 H 0 Z"
         id="path18" /></clipPath></defs><sodipodi:namedview
     pagecolor="#ffffff"
     bordercolor="#666666"
     borderopacity="1"
     objecttolerance="10"
     gridtolerance="10"
     guidetolerance="10"
     inkscape:pageopacity="0"
     inkscape:pageshadow="2"
     inkscape:window-width="640"
     inkscape:window-height="480"
     id="namedview4" /><g
     id="g10"
     inkscape:groupmode="layer"
     inkscape:label="logo_i_azul"
     transform="matrix(1.3333333,0,0,-1.3333333,0,1333.3333)"><path
       d="M 0,0 H 1000 V 1000 H 0 Z"
       style="fill:#00aeef;fill-opacity:1;fill-rule:nonzero;stroke:none"
       id="path12" /><g
       id="g14"><g
         id="g16"
         clip-path="url(#clipPath20)"><g
           id="g22"
           transform="translate(493.4229,614.0603)"><path
             d="M 0,0 C -27.713,0 -50.367,-22.747 -50.367,-50.459 V -353.588 H 64.294 L 64.294,0 Z"
             style="fill:#ffffff;fill-opacity:1;fill-rule:nonzero;stroke:none"
             id="path24" /></g><g
           id="g26"
           transform="translate(552.452,729.3221)"><path
             d="m 0,0 c 0,-26.186 -21.227,-47.413 -47.413,-47.413 -26.186,0 -47.413,21.227 -47.413,47.413 0,26.186 21.227,47.413 47.413,47.413 C -21.227,47.413 0,26.186 0,0 m 5.265,0 c 0,29.093 -23.585,52.678 -52.678,52.678 -29.099,0 -52.684,-23.585 -52.684,-52.678 0,-29.099 23.585,-52.684 52.684,-52.684 29.093,0 52.678,23.585 52.678,52.684"
             style="fill:#ffffff;fill-opacity:1;fill-rule:nonzero;stroke:none"
             id="path28" /></g><g
           id="g30"
           transform="translate(458.6832,719.451)"><path
             d="M 0,0 C 4.548,-21.441 23.556,-37.542 46.356,-37.542 69.155,-37.542 88.163,-21.441 92.711,0 83.863,16.667 66.537,28.145 46.356,28.145 26.168,28.145 8.848,16.667 0,0"
             style="fill:#ec1c24;fill-opacity:1;fill-rule:nonzero;stroke:none"
             id="path32" /></g><g
           id="g34"
           transform="translate(458.6832,719.4568)"><path
             d="m 0,0 c -3.907,-7.363 -6.328,-15.627 -6.328,-24.539 0,-29.098 23.585,-52.684 52.684,-52.684 29.092,0 52.678,23.586 52.678,52.684 0,8.912 -2.422,17.176 -6.323,24.539 C 88.163,-21.447 69.155,-37.548 46.356,-37.548 23.556,-37.548 4.548,-21.447 0,0"
             style="fill:#ffffff;fill-opacity:1;fill-rule:nonzero;stroke:none"
             id="path36" /></g></g></g></g></svg>
